<svg xmlns="http://www.w3.org/2000/svg" version="1.1" xmlns:xlink="http://www.w3.org/1999/xlink" xmlns:svgjs="http://svgjs.dev/svgjs" width="1000" height="207" viewBox="0 0 1000 207"><g transform="matrix(1,0,0,1,-0.6060505570889632,-0.11863379706666421)"><svg viewBox="0 0 396 82" data-background-color="#ffffff" preserveAspectRatio="xMidYMid meet" height="207" width="1000" xmlns="http://www.w3.org/2000/svg" xmlns:xlink="http://www.w3.org/1999/xlink"><g id="tight-bounds" transform="matrix(1,0,0,1,0.23999644830962552,0.04699503072205857)"><svg viewBox="0 0 395.52 81.9060065520216" height="81.9060065520216" width="395.52"><g><svg viewBox="0 0 503.30163485621017 104.22589755809044" height="81.9060065520216" width="395.52"><g transform="matrix(1,0,0,1,107.78163485621022,14.404592209547964)"><svg viewBox="0 0 395.52 75.41671313899451" height="75.41671313899451" width="395.52"><g><svg viewBox="0 0 395.52 75.41671313899451" height="75.41671313899451" width="395.52"><g><svg viewBox="0 0 395.52 75.41671313899451" height="75.41671313899451" width="395.52"><g transform="matrix(1,0,0,1,0,0)"><svg width="395.52" viewBox="4.579999923706055 -33.77000045776367 179.47999572753906 34.22999954223633" height="75.41671313899451" data-palette-color="#4790fc"><path d="M25.96-33.27L29.83-33.27 29.83 0 25.96 0 25.96-15.65 8.44-15.65 8.44 0 4.58 0 4.58-33.27 8.44-33.27 8.44-19.11 25.96-19.11 25.96-33.27ZM41.2-4.02Q37.21-8.54 37.21-16.7 37.21-24.85 41.21-29.31 45.22-33.77 52.49-33.77 59.75-33.77 63.79-29.23 67.82-24.7 67.82-16.7 67.82-8.7 63.77-4.12 59.73 0.46 52.46 0.46 45.19 0.46 41.2-4.02L41.2-4.02ZM60.92-26.87Q58.11-30.33 52.59-30.33 47.07-30.33 44.18-26.85 41.3-23.36 41.3-16.65 41.3-9.93 44.18-6.43 47.07-2.93 52.58-2.93 58.09-2.93 60.9-6.41 63.72-9.88 63.72-16.65 63.72-23.41 60.92-26.87ZM96.46-11.6L96.46-33.27 100.32-33.27 100.32-11.73Q100.32-6.04 96.89-2.79 93.45 0.46 87.46 0.46 81.47 0.46 78.15-2.81L78.15-2.81Q74.87-6.09 74.87-11.83L74.87-11.83 74.87-33.27 78.74-33.27 78.74-11.55Q78.74-7.36 81.02-5.14 83.31-2.93 87.61-2.93 91.91-2.93 94.18-5.18 96.46-7.43 96.46-11.6L96.46-11.6ZM127.9-8.85L127.9-8.85Q127.9-4.45 124.73-2 121.55 0.46 115.85 0.46 110.15 0.46 106.97-1.06L106.97-1.06 106.97-4.8Q111.47-2.93 116.22-2.93L116.22-2.93Q120.04-2.93 122.02-4.37 124.01-5.81 124.01-8.49L124.01-8.49Q124.01-10.21 123.31-11.3 122.62-12.39 120.97-13.35 119.33-14.31 116.04-15.47L116.04-15.47Q111.42-17.11 109.41-19.39 107.4-21.66 107.4-25.43 107.4-29.2 110.28-31.47L110.28-31.47Q113.21-33.75 118.05-33.75 122.89-33.75 127.07-31.93L127.07-31.93 125.85-28.54Q121.73-30.28 117.86-30.28L117.86-30.28Q114.78-30.28 113.05-28.96 111.32-27.63 111.32-25.3L111.32-25.3Q111.32-23.53 111.94-22.47 112.56-21.41 114.1-20.42L114.1-20.42Q115.69-19.46 118.75-18.4L118.75-18.4Q124.01-16.53 125.93-14.38L125.93-14.38Q127.9-12.26 127.9-8.85ZM138.59-3.46L153.25-3.46 153.25 0 134.72 0 134.72-33.27 153.25-33.27 153.25-29.83 138.59-29.83 138.59-19.11 152.37-19.11 152.37-15.7 138.59-15.7 138.59-3.46ZM169.53-29.88L164.5-29.88 164.5-17.16 169.81-17.16Q173.88-17.16 175.8-18.77 177.72-20.37 177.72-23.66 177.72-26.95 175.77-28.41 173.82-29.88 169.53-29.88L169.53-29.88ZM171.42-13.83L164.5-13.83 164.5 0 160.63 0 160.63-33.27 169.75-33.27Q175.85-33.27 178.78-30.93 181.71-28.59 181.71-23.86L181.71-23.86Q181.71-17.24 175.04-14.94L175.04-14.94 184.06 0 179.49 0 171.42-13.83Z" opacity="1" transform="matrix(1,0,0,1,0,0)" fill="#4790fc" class="undefined-text-0" data-fill-palette-color="primary" id="text-0"></path></svg></g></svg></g></svg></g></svg></g><g><svg viewBox="0 0 89.97755888520895 104.22589755809044" height="104.22589755809044" width="89.97755888520895"><g><svg xmlns="http://www.w3.org/2000/svg" xmlns:xlink="http://www.w3.org/1999/xlink" version="1.1" x="0" y="0" viewBox="9.63800048828125 3.246999979019165 80.7239990234375 93.50699615478516" enable-background="new 0 0 100 100" xml:space="preserve" height="104.22589755809044" width="89.97755888520895" class="icon-icon-0" data-fill-palette-color="accent" id="icon-0"><g fill="#ed2326" data-fill-palette-color="accent"><g fill="#ed2326" data-fill-palette-color="accent"><polygon points="36.703,11.011 9.638,26.636 9.638,38.757 36.703,23.131 63.767,38.757 63.767,26.636   " fill="#ed2326" data-fill-palette-color="accent"></polygon></g><g fill="#ed2326" data-fill-palette-color="accent"><polygon points="63.298,89.092 36.233,73.467 36.233,61.348 63.298,76.973 90.362,61.348 90.362,73.467   " fill="#ed2326" data-fill-palette-color="accent"></polygon></g><g fill="#ed2326" data-fill-palette-color="accent"><polygon points="9.638,42.012 36.703,26.386 47.198,32.446 20.134,48.072 20.134,79.324 9.638,73.264   " fill="#ed2326" data-fill-palette-color="accent"></polygon></g><g fill="#ed2326" data-fill-palette-color="accent"><polygon points="77.083,18.872 50.018,3.247 39.522,9.307 66.586,24.932 66.586,56.184 77.083,50.124   " fill="#ed2326" data-fill-palette-color="accent"></polygon></g><g fill="#ed2326" data-fill-palette-color="accent"><polygon points="23.01,81.127 23.011,49.876 33.507,43.816 33.507,75.068 60.571,90.693 50.075,96.754   " fill="#ed2326" data-fill-palette-color="accent"></polygon></g><g fill="#ed2326" data-fill-palette-color="accent"><polygon points="90.362,58.092 90.362,26.84 79.866,20.78 79.866,52.031 52.802,67.658 63.298,73.719   " fill="#ed2326" data-fill-palette-color="accent"></polygon></g></g></svg></g></svg></g></svg></g><defs></defs></svg><rect width="395.52" height="81.9060065520216" fill="none" stroke="none" visibility="hidden"></rect></g></svg></g></svg>